<svg xmlns="http://www.w3.org/2000/svg" viewBox="0 0 64 64" width="64" height="64">
  <circle cx="32" cy="32" r="12" fill="#FFD700"/>
  <path d="M 45,45
           A 15,15 0 0 1 30,30
           A 10,10 0 0 1 20,20
           A 15,15 0 0 1 45,20
           A 10,10 0 0 1 55,30
           A 15,15 0 0 1 45,45
           Z" fill="#FFFFFF" stroke="#EEEEEE" stroke-width="2"/>
  <path d="M 45,46
           A 15,15 0 0 1 30,31
           A 10,10 0 0 1 20,21
           A 15,15 0 0 1 45,21
           A 10,10 0 0 1 55,31
           A 15,15 0 0 1 45,46
           Z" fill="#000000" opacity="0.1" transform="translate(1, 1)"/>
</svg>